<svg xmlns="http://www.w3.org/2000/svg" width="55.224" height="42.94" viewBox="0 0 55.224 42.94">
    <path id="abstractFactoy" d="M-1549.463-118.06a.424.424,0,0,1-.425-.425v-7.089a.425.425,0,0,1,.425-.426h1.985a.426.426,0,0,1,.426.426v3.479l2.275-1.449v-5.27h-4.686a.425.425,0,0,1-.425-.426v-7.089a.425.425,0,0,1,.425-.426h1.985a.426.426,0,0,1,.426.426v3.479l2.275-1.449v-4.27h-12.191a1.2,1.2,0,0,1-1.2-1.2v-2.69l-4.681,4.847v4.712l2.383-1.517a.426.426,0,0,1,.653.359v4.82a.425.425,0,0,1-.425.426h-6.612v5.618l2.309-1.469a.425.425,0,0,1,.653.359v4.82a.424.424,0,0,1-.425.425h-8.224a.425.425,0,0,1-.426-.425v-7.089a.425.425,0,0,1,.426-.426h1.985a.425.425,0,0,1,.425.426v3.479l2.276-1.448v-4.27h-.612a.425.425,0,0,1-.425-.426v-7.089a.425.425,0,0,1,.425-.426h1.985a.426.426,0,0,1,.426.426v3.479l2.2-1.4v-3.8l1-1,4.681-4.846v-15.9a1.2,1.2,0,0,1,1.2-1.2h5.608a1.2,1.2,0,0,1,1.2,1.2v9.83l6.966-4.432a1.2,1.2,0,0,1,1.847,1.013v3.419l6.966-4.432a1.2,1.2,0,0,1,1.847,1.013v7.489l4.682,4.848h0l1,1v6.566l2.309-1.469a.426.426,0,0,1,.654.359v4.82a.425.425,0,0,1-.426.426h-.537v2.318h.447a.426.426,0,0,1,.426.426v3.479l2.466-1.57a.426.426,0,0,1,.653.359v1.21l2.466-1.57a.426.426,0,0,1,.653.359v4.82a.426.426,0,0,1-.426.426h-8.223a.426.426,0,0,1-.426-.426v-7.089a.426.426,0,0,1,.426-.426h.537v-2.318h-6.686a.425.425,0,0,1-.426-.426v-7.089a.425.425,0,0,1,.426-.425h1.984a.425.425,0,0,1,.426.425v3.479l2.276-1.448v-4.777l-4.682-4.848v4.691a1.2,1.2,0,0,1-1.2,1.2h-10.042v5.619l2.308-1.47a.426.426,0,0,1,.653.359v4.82a.425.425,0,0,1-.425.426h-2.537v6.619l2.308-1.47a.425.425,0,0,1,.653.359v4.82a.424.424,0,0,1-.425.425Z" transform="translate(1572.962 161)" fill="#00aa7b" />
</svg>
