<svg xmlns="http://www.w3.org/2000/svg" width="26.394" height="26.235" viewBox="0 0 26.394 26.235">
    <path id="Icon_material-build" data-name="Icon material-build"
          d="M27.481,23.093l-10.9-10.9a7.688,7.688,0,0,0-1.8-8.266A7.919,7.919,0,0,0,5.919,2.369L11.07,7.52,7.476,11.114,2.205,5.962a7.72,7.72,0,0,0,1.557,8.865,7.688,7.688,0,0,0,8.266,1.8l10.9,10.9a1.158,1.158,0,0,0,1.677,0l2.755-2.755a1.079,1.079,0,0,0,.12-1.677Z"
          transform="translate(-1.433 -1.65)" fill="#00aa7b"/>
</svg>
