<svg xmlns="http://www.w3.org/2000/svg" width="62.041" height="30.296" viewBox="0 0 62.041 30.296">
    <g id="Group_5" data-name="Group 5" transform="translate(-1711.669 -2482)">
        <path id="Union_6" data-name="Union 6" d="M54.362,30.3a.142.142,0,0,1-.14-.173c.115-.509.718-.782,1.021-.9L39.29,20.016a7.267,7.267,0,0,1-6.683,4.411H28.42a7.264,7.264,0,0,1-6.466-3.951L6.8,29.228c.3.113.906.387,1.022.9a.142.142,0,0,1-.14.173H1.151a.143.143,0,0,1-.139-.173c.128-.564.858-.839,1.11-.928a8.31,8.31,0,0,1,.924-.177.939.939,0,0,0,.428-.2,3.734,3.734,0,0,0,.029-.875,2.647,2.647,0,0,1-.2-.385,4.959,4.959,0,0,1-.149-.672s-.145,0-.2-.256a2.473,2.473,0,0,1-.131-.595c.01-.2.122-.2.122-.2a3.089,3.089,0,0,1-.121-.911,1.462,1.462,0,0,1,1.589-1.448,1.456,1.456,0,0,1,1.592,1.448,3.266,3.266,0,0,1-.119.911s.112-.006.122.2a2.517,2.517,0,0,1-.131.595c-.049.256-.2.256-.2.256a4.959,4.959,0,0,1-.149.672,2.589,2.589,0,0,1-.2.385,3.728,3.728,0,0,0,.028.875l.005.006,8.46-4.884,7.712-4.453a7.224,7.224,0,0,1-.3-1.231H.141A.142.142,0,0,1,0,18.086c.128-.564.857-.839,1.109-.928a8.35,8.35,0,0,1,.924-.177.935.935,0,0,0,.428-.2,3.732,3.732,0,0,0,.029-.875,2.647,2.647,0,0,1-.2-.385,4.917,4.917,0,0,1-.149-.672s-.146,0-.2-.256A2.517,2.517,0,0,1,1.814,14c.011-.2.122-.2.122-.2a3.129,3.129,0,0,1-.121-.911A1.462,1.462,0,0,1,3.4,11.444,1.456,1.456,0,0,1,5,12.892a3.266,3.266,0,0,1-.119.911S4.99,13.8,5,14a2.517,2.517,0,0,1-.131.595c-.049.256-.2.256-.2.256a4.917,4.917,0,0,1-.148.672,2.647,2.647,0,0,1-.2.385,3.777,3.777,0,0,0,.028.875.943.943,0,0,0,.428.2,8.31,8.31,0,0,1,.924.177c.028.01.061.022.1.037H21.156c0-.011,0-.022,0-.033a7.3,7.3,0,0,1,.124-1.346l-15.591-9H1.151a.142.142,0,0,1-.139-.172c.128-.564.858-.84,1.11-.929a8.311,8.311,0,0,1,.924-.177.93.93,0,0,0,.428-.2A3.732,3.732,0,0,0,3.5,4.465a2.647,2.647,0,0,1-.2-.385,4.959,4.959,0,0,1-.149-.672s-.145,0-.2-.256a2.476,2.476,0,0,1-.131-.594c.01-.2.122-.2.122-.2a3.089,3.089,0,0,1-.121-.911A1.462,1.462,0,0,1,4.415,0,1.456,1.456,0,0,1,6.007,1.448a3.266,3.266,0,0,1-.119.911s.112-.005.122.2a2.52,2.52,0,0,1-.131.594c-.049.256-.2.256-.2.256a4.958,4.958,0,0,1-.149.672,2.589,2.589,0,0,1-.2.385,3.727,3.727,0,0,0,.028.875.934.934,0,0,0,.428.2,8.39,8.39,0,0,1,.924.177c.252.089.981.364,1.109.929a.141.141,0,0,1-.053.143l6.589,3.8,7.209,4.162A7.268,7.268,0,0,1,28.42,9.9h4.187a7.268,7.268,0,0,1,7.01,5.351l8.069-4.658,6.589-3.8a.14.14,0,0,1-.053-.144c.128-.563.857-.839,1.109-.928a8.35,8.35,0,0,1,.924-.177.926.926,0,0,0,.428-.2,3.732,3.732,0,0,0,.029-.875,2.648,2.648,0,0,1-.2-.385,4.917,4.917,0,0,1-.148-.672s-.148,0-.2-.256a2.52,2.52,0,0,1-.131-.594c.011-.2.122-.2.122-.2a3.266,3.266,0,0,1-.119-.911,1.6,1.6,0,0,1,3.181,0,3.129,3.129,0,0,1-.121.911s.112-.005.122.2a2.52,2.52,0,0,1-.131.594c-.051.256-.2.256-.2.256a4.917,4.917,0,0,1-.148.672,2.647,2.647,0,0,1-.2.385,3.732,3.732,0,0,0,.029.875.93.93,0,0,0,.428.2,8.31,8.31,0,0,1,.924.177c.252.089.982.364,1.109.928a.142.142,0,0,1-.138.173H56.352L39.828,16.356a7.344,7.344,0,0,1,.044.806c0,.011,0,.022,0,.033H56.24c.039-.015.072-.027.1-.037a8.311,8.311,0,0,1,.924-.177.939.939,0,0,0,.428-.2,3.732,3.732,0,0,0,.029-.875,2.648,2.648,0,0,1-.2-.385,4.959,4.959,0,0,1-.149-.672s-.147,0-.2-.256A2.473,2.473,0,0,1,57.041,14c.01-.2.122-.2.122-.2a3.223,3.223,0,0,1-.119-.911,1.6,1.6,0,0,1,3.181,0,3.129,3.129,0,0,1-.121.911s.112-.005.122.2a2.517,2.517,0,0,1-.131.595c-.051.256-.2.256-.2.256a4.959,4.959,0,0,1-.149.672,2.589,2.589,0,0,1-.2.385,3.727,3.727,0,0,0,.028.875.944.944,0,0,0,.428.2,8.325,8.325,0,0,1,.925.177c.252.089.981.364,1.109.928a.142.142,0,0,1-.139.173H39.79a7.237,7.237,0,0,1-.15.731l8.578,4.952,8.46,4.884,0-.006a3.734,3.734,0,0,0,.029-.875,2.648,2.648,0,0,1-.2-.385,4.917,4.917,0,0,1-.148-.672s-.148,0-.2-.256a2.517,2.517,0,0,1-.131-.595c.011-.2.122-.2.122-.2a3.266,3.266,0,0,1-.119-.911,1.6,1.6,0,0,1,3.181,0,3.129,3.129,0,0,1-.121.911s.112-.006.122.2a2.517,2.517,0,0,1-.131.595c-.051.256-.2.256-.2.256a4.917,4.917,0,0,1-.148.672,2.647,2.647,0,0,1-.2.385,3.734,3.734,0,0,0,.029.875.939.939,0,0,0,.428.2,8.31,8.31,0,0,1,.924.177c.252.089.982.364,1.109.928a.142.142,0,0,1-.138.173Z" transform="translate(1711.669 2482)" fill="#00aa7b" />
    </g>
</svg>
