<svg xmlns="http://www.w3.org/2000/svg" width="105.672" height="37.829" viewBox="0 0 105.672 37.829">
    <g id="Group_10" data-name="Group 10" transform="translate(400.706 -2656.515)">
        <path id="Union_8" data-name="Union 8"
              d="M78.1,32.829a5.707,5.707,0,1,1,0-11.414H85.64a5.707,5.707,0,0,1,0,11.414Zm-30.123,0a5.707,5.707,0,0,1,0-11.414h4.136v-10H47.978A5.707,5.707,0,0,1,47.978,0h7.539a5.706,5.706,0,0,1,5.706,5.707h0a5.706,5.706,0,0,1-5.706,5.707h-3.4v10h3.4A5.712,5.712,0,0,1,61.055,28.5h0a5.708,5.708,0,0,1-5.538,4.325Zm-30.122,0A5.709,5.709,0,0,1,12.317,28.5h0a5.712,5.712,0,0,1,5.539-7.088h3.191v-10H17.856A5.707,5.707,0,1,1,17.856,0H25.4A5.706,5.706,0,0,1,31.1,5.707h0A5.706,5.706,0,0,1,25.4,11.414H21.047v10H25.4A5.712,5.712,0,0,1,30.933,28.5h0A5.708,5.708,0,0,1,25.4,32.829Zm84.11-4.325h0v0ZM1.294,28.5h0v0Zm100.672,0h0Zm0,0V5.707h0ZM1.294,28.5V5.707h0Zm80.983-7.088v0Zm0-10H78.1A5.707,5.707,0,1,1,78.1,0H85.64a5.707,5.707,0,0,1,0,11.414Zm19.689-5.707h0Zm0,0v0Zm-100.672,0h0Zm0,0v0Z"
              transform="translate(-399.5 2659.015)" fill="rgba(0,0,0,0)" stroke="#00aa7b" stroke-width="5"/>
    </g>
</svg>
