<svg xmlns="http://www.w3.org/2000/svg" width="45.059" height="46.684" viewBox="0 0 45.059 46.684">
    <g id="Group_6" data-name="Group 6" transform="translate(-1716.488 -2503.67)">
        <path id="Icon_awesome-newspaper" data-name="Icon awesome-newspaper"
              d="M27.183,4.5H4.334A1.182,1.182,0,0,0,3.152,5.682v.394H1.182A1.182,1.182,0,0,0,0,7.258V20.652A2.758,2.758,0,0,0,2.758,23.41H26a2.364,2.364,0,0,0,2.364-2.364V5.682A1.182,1.182,0,0,0,27.183,4.5ZM2.758,21.046a.394.394,0,0,1-.394-.394V8.44h.788V20.652A.394.394,0,0,1,2.758,21.046Zm11.622-.788H6.894a.591.591,0,0,1-.591-.591v-.394a.591.591,0,0,1,.591-.591h7.485a.591.591,0,0,1,.591.591v.394A.591.591,0,0,1,14.379,20.258Zm10.243,0H17.137a.591.591,0,0,1-.591-.591v-.394a.591.591,0,0,1,.591-.591h7.485a.591.591,0,0,1,.591.591v.394A.591.591,0,0,1,24.622,20.258ZM14.379,15.531H6.894A.591.591,0,0,1,6.3,14.94v-.394a.591.591,0,0,1,.591-.591h7.485a.591.591,0,0,1,.591.591v.394A.591.591,0,0,1,14.379,15.531Zm10.243,0H17.137a.591.591,0,0,1-.591-.591v-.394a.591.591,0,0,1,.591-.591h7.485a.591.591,0,0,1,.591.591v.394A.591.591,0,0,1,24.622,15.531Zm0-4.727H6.894a.591.591,0,0,1-.591-.591V8.243a.591.591,0,0,1,.591-.591H24.622a.591.591,0,0,1,.591.591v1.97A.591.591,0,0,1,24.622,10.8Z"
              transform="translate(1724.826 2499.17)" fill="#00aa7b"/>
        <path id="Icon_awesome-user-nurse" data-name="Icon awesome-user-nurse"
              d="M1.578,7.865H3.827a3.438,3.438,0,0,0,4.58,0h2.249a.437.437,0,0,0,.39-.633A18.457,18.457,0,0,1,9.9,4.623a6.338,6.338,0,0,1-.283-1.968V1.311L6.117,0l-3.5,1.311V2.654A6.329,6.329,0,0,1,2.34,4.623,18.48,18.48,0,0,1,1.188,7.232a.437.437,0,0,0,.39.633ZM5.025,1.957a.137.137,0,0,1,.137-.137h.592V1.229a.137.137,0,0,1,.137-.137h.455a.137.137,0,0,1,.137.137v.592h.592a.137.137,0,0,1,.137.137v.455a.137.137,0,0,1-.137.137H6.481v.592a.137.137,0,0,1-.137.137H5.89a.137.137,0,0,1-.137-.137V2.549H5.161a.137.137,0,0,1-.137-.137ZM3.933,4.369H8.3v.874a2.185,2.185,0,0,1-4.369,0Zm4.79,4.369L6.117,11.344,3.512,8.739A3.662,3.662,0,0,0,0,12.393a1.59,1.59,0,0,0,1.59,1.59h9.055a1.59,1.59,0,0,0,1.59-1.59A3.662,3.662,0,0,0,8.723,8.739Z"
              transform="translate(1716.488 2536.371)" fill="#00aa7b"/>
        <path id="Icon_awesome-user-tie" data-name="Icon awesome-user-tie"
              d="M6.117,6.991a3.5,3.5,0,1,0-3.5-3.5A3.5,3.5,0,0,0,6.117,6.991Zm2.616.89L7.428,13.108,6.554,9.394l.874-1.529H4.806L5.68,9.394l-.874,3.714L3.5,7.881A3.664,3.664,0,0,0,0,11.535v1.136a1.311,1.311,0,0,0,1.311,1.311h9.613a1.311,1.311,0,0,0,1.311-1.311V11.535a3.664,3.664,0,0,0-3.5-3.654Z"
              transform="translate(1732.175 2536.371)" fill="#00aa7b"/>
        <path id="Icon_awesome-user-graduate" data-name="Icon awesome-user-graduate"
              d="M8.723,8.754,6.117,11.36,3.512,8.754A3.662,3.662,0,0,0,0,12.408v.262a1.311,1.311,0,0,0,1.311,1.311h9.613a1.311,1.311,0,0,0,1.311-1.311v-.262A3.662,3.662,0,0,0,8.723,8.754ZM.371,2.178l.175.041V3.814A.631.631,0,0,0,.522,4.906L.1,6.608C.049,6.8.153,6.99.3,6.99H1.445c.15,0,.254-.194.208-.382l-.426-1.7A.631.631,0,0,0,1.2,3.814V2.378L3,2.812A3.489,3.489,0,1,0,9.613,4.368,3.433,3.433,0,0,0,9.23,2.812l2.63-.634a.435.435,0,0,0,0-.86L6.661.062a2.346,2.346,0,0,0-1.084,0L.371,1.315a.436.436,0,0,0,0,.863Z"
              transform="translate(1749.312 2536.373)" fill="#00aa7b"/>
        <path id="Path_11" data-name="Path 11" d="M2.7,0-3.546,20.032" transform="translate(1728.371 2517.528)"
              fill="#00aa7b" stroke="#00aa7b" stroke-width="4" stroke-dasharray="5"/>
        <line id="Line_2" data-name="Line 2" x1="0.437" y2="19.808" transform="translate(1738.292 2518.693)" fill="none"
              stroke="#00aa7b" stroke-width="4" stroke-dasharray="5"/>
        <line id="Line_3" data-name="Line 3" x2="3.884" y2="20.973" transform="translate(1748.73 2517.528)" fill="none"
              stroke="#00aa7b" stroke-width="4" stroke-dasharray="5"/>
    </g>
</svg>
