<svg xmlns="http://www.w3.org/2000/svg" width="39" height="36" viewBox="0 0 39 36">
    <g id="Group_7" data-name="Group 7" transform="translate(-1624 -2337.6)">
        <path id="Path_21" data-name="Path 21" d="M19.5,0C30.27,0,39,8.059,39,18S30.27,36,19.5,36,0,27.941,0,18,8.73,0,19.5,0Z" transform="translate(1624 2337.6)" fill="#008b65" />
        <path id="Path_20" data-name="Path 20" d="M14,0A14,14,0,1,1,0,14,14,14,0,0,1,14,0Z" transform="translate(1634 2341.6)" fill="#00aa7b" />
        <path id="Path_19" data-name="Path 19" d="M5.5,0A5.5,5.5,0,1,1,0,5.5,5.5,5.5,0,0,1,5.5,0Z" transform="translate(1649 2350.6)" fill="#a3ddcc" />
    </g>
</svg>
