<svg xmlns="http://www.w3.org/2000/svg" width="23.053" height="36" viewBox="0 0 23.053 36">
    <path id="Icon_awesome-fly" data-name="Icon awesome-fly" d="M13.908,30.08c.907.823,2.37,2.341,2.334,3.565,0,.056-.007.112-.007.176A2.51,2.51,0,0,1,13.486,36a2.463,2.463,0,0,1-2.721-2.517c.07-1.139,1.441-2.58,2.278-3.347a.8.8,0,0,1,.394-.253.52.52,0,0,1,.471.2ZM23.337,4.732a9.873,9.873,0,0,0-4.451-3.663A14.371,14.371,0,0,0,13.5,0,13.379,13.379,0,0,0,7.8,1.216C4.029,3.178,1.863,6.131,1.969,11.152c.5,5.78,6.82,12.375,10.955,16.439a1.959,1.959,0,0,0,.436.359l.232.007a.412.412,0,0,0,.246-.148C17.515,24.349,23.73,17.557,24.8,12.642a10.527,10.527,0,0,0-1.462-7.91Zm-10.2,20.011c-1.969-3.593-4.584-9.19-4.873-13.289-.239-3.34.8-9.225,4.873-9.612Zm9.977-12.087c-1.153,3.994-5.435,9-8.36,11.974,1.955-3.649,4.584-9.373,4.725-13.493C19.589,7.91,18.788,3.7,16.1,1.9A8.624,8.624,0,0,1,23.112,12.656Z" transform="translate(-1.965 0)" fill="#00aa7b" />
</svg>
