<svg xmlns="http://www.w3.org/2000/svg" width="24.308" height="23.701" viewBox="0 0 24.308 23.701">
    <path id="Icon_awesome-github" data-name="Icon awesome-github"
          d="M8.13,19.646c0,.1-.113.176-.255.176-.162.015-.274-.064-.274-.176s.113-.176.255-.176S8.13,19.534,8.13,19.646Zm-1.524-.221c-.034.1.064.211.211.24a.23.23,0,0,0,.3-.1c.029-.1-.064-.211-.211-.255A.252.252,0,0,0,6.606,19.426Zm2.166-.083c-.142.034-.24.127-.225.24s.142.162.289.127.24-.127.225-.225S8.915,19.328,8.772,19.342ZM12,.563A11.752,11.752,0,0,0,0,12.521,12.287,12.287,0,0,0,8.307,24.243c.627.113.848-.274.848-.593s-.015-1.98-.015-3.009c0,0-3.431.735-4.151-1.46,0,0-.559-1.426-1.362-1.794,0,0-1.122-.769.078-.755A2.587,2.587,0,0,1,5.6,17.9a2.591,2.591,0,0,0,3.573,1.024,2.724,2.724,0,0,1,.784-1.652c-2.74-.3-5.5-.7-5.5-5.415A3.714,3.714,0,0,1,5.607,8.967,4.63,4.63,0,0,1,5.734,5.64c1.024-.319,3.382,1.323,3.382,1.323a11.578,11.578,0,0,1,6.155,0s2.357-1.647,3.382-1.323a4.628,4.628,0,0,1,.127,3.328,3.81,3.81,0,0,1,1.264,2.887c0,4.729-2.887,5.107-5.626,5.415a2.9,2.9,0,0,1,.833,2.274c0,1.652-.015,3.7-.015,4.1,0,.319.225.706.848.593a12.174,12.174,0,0,0,8.224-11.713A12.017,12.017,0,0,0,12,.563Zm-7.234,16.9c-.064.049-.049.162.034.255s.191.113.255.049.049-.162-.034-.255S4.827,17.4,4.764,17.465Zm-.529-.4c-.034.064.015.142.113.191a.146.146,0,0,0,.211-.034c.034-.064-.015-.142-.113-.191C4.347,17,4.269,17.019,4.234,17.068Zm1.588,1.745c-.078.064-.049.211.064.3.113.113.255.127.319.049s.034-.211-.064-.3C6.033,18.749,5.886,18.735,5.822,18.813Zm-.559-.72c-.078.049-.078.176,0,.289s.211.162.274.113a.224.224,0,0,0,0-.3C5.469,18.078,5.342,18.029,5.263,18.093Z"
          transform="translate(0 -0.563)"/>
</svg>
