<svg xmlns="http://www.w3.org/2000/svg" width="30.849" height="30.849" viewBox="0 0 30.849 30.849">
    <path id="Icon_metro-info" data-name="Icon metro-info"
          d="M16.067,11.086A1.45,1.45,0,0,1,17.513,9.64h.964a1.45,1.45,0,0,1,1.446,1.446v.964A1.45,1.45,0,0,1,18.477,13.5h-.964a1.45,1.45,0,0,1-1.446-1.446Zm5.784,13.978H14.139V23.136h1.928V17.352H14.139V15.424h5.784v7.712h1.928ZM17.995,1.928A15.424,15.424,0,1,0,33.419,17.352,15.424,15.424,0,0,0,17.995,1.928Zm0,27.956A12.532,12.532,0,1,1,30.527,17.352,12.532,12.532,0,0,1,17.995,29.885Z"
          transform="translate(-2.571 -1.928)" fill="#00aa7b"/>
</svg>
