<svg xmlns="http://www.w3.org/2000/svg" width="26.197" height="26.197" viewBox="0 0 26.197 26.197">
    <path id="Icon_awesome-linkedin" data-name="Icon awesome-linkedin"
          d="M24.326,2.25H1.865A1.879,1.879,0,0,0,0,4.139v22.42a1.879,1.879,0,0,0,1.865,1.889h22.46A1.884,1.884,0,0,0,26.2,26.558V4.139A1.884,1.884,0,0,0,24.326,2.25ZM7.918,24.7H4.035V12.2H7.923V24.7ZM5.976,10.5A2.251,2.251,0,1,1,8.228,8.244,2.252,2.252,0,0,1,5.976,10.5Zm16.5,14.21H18.589V18.623c0-1.45-.029-3.316-2.017-3.316-2.023,0-2.333,1.579-2.333,3.21V24.7H10.356V12.2h3.725V13.91h.053a4.09,4.09,0,0,1,3.678-2.017c3.93,0,4.66,2.59,4.66,5.959Z"
          transform="translate(0 -2.25)" fill="#0079c9"/>
</svg>
