<svg xmlns="http://www.w3.org/2000/svg" width="30.602" height="26.776" viewBox="0 0 30.602 26.776">
    <path id="Icon_awesome-eraser" data-name="Icon awesome-eraser" d="M29.761,16.71a2.869,2.869,0,0,0,0-4.057L20.2,3.09a2.869,2.869,0,0,0-4.057,0L.84,18.391a2.869,2.869,0,0,0,0,4.057l5.738,5.738a2.869,2.869,0,0,0,2.029.84H29.884a.717.717,0,0,0,.717-.717V25.918a.717.717,0,0,0-.717-.717H21.271l8.491-8.491ZM11.674,12.967l8.211,8.211L15.861,25.2H9L4.221,20.42l7.452-7.452Z" transform="translate(0 -2.25)" fill="#00aa7b" />
</svg>
