<svg xmlns="http://www.w3.org/2000/svg" width="45.782" height="37.432" viewBox="0 0 45.782 37.432">
    <g id="Group_8" data-name="Group 8" transform="translate(302.196 -2679.794)">
        <rect id="Rectangle_21" data-name="Rectangle 21" width="13.702" height="2.928" rx="1.464" transform="translate(-279.773 2684.823)" fill="#00aa7b" />
        <rect id="Rectangle_22" data-name="Rectangle 22" width="24.594" height="2.928" rx="1.464" transform="translate(-290.665 2698.8)" fill="#00aa7b" />
        <rect id="Rectangle_23" data-name="Rectangle 23" width="13.702" height="2.928" rx="1.464" transform="translate(-279.773 2711.934)" fill="#00aa7b" />
        <rect id="Rectangle_23-2" data-name="Rectangle 23" width="29.981" height="2.928" rx="1.464" transform="translate(-276.904 2684.882) rotate(90)" fill="#00aa7b" />
        <path id="Icon_awesome-user" data-name="Icon awesome-user" d="M5.1,5.831A2.915,2.915,0,1,0,2.187,2.915,2.915,2.915,0,0,0,5.1,5.831Zm2.041.729h-.38a3.965,3.965,0,0,1-3.321,0h-.38A3.062,3.062,0,0,0,0,9.621v.947a1.094,1.094,0,0,0,1.093,1.093H9.111A1.094,1.094,0,0,0,10.2,10.568V9.621A3.062,3.062,0,0,0,7.143,6.56Z" transform="translate(-302.196 2694.041)" fill="#00aa7b" />
        <path id="Icon_awesome-user-nurse" data-name="Icon awesome-user-nurse" d="M1.135,5.657H2.753a2.473,2.473,0,0,0,3.294,0H7.665a.314.314,0,0,0,.28-.455,13.276,13.276,0,0,1-.828-1.877,4.559,4.559,0,0,1-.2-1.416V.943L4.4,0,1.886.943v.966a4.552,4.552,0,0,1-.2,1.416A13.292,13.292,0,0,1,.854,5.2a.314.314,0,0,0,.28.455ZM3.614,1.408a.1.1,0,0,1,.1-.1h.426V.884a.1.1,0,0,1,.1-.1h.327a.1.1,0,0,1,.1.1V1.31h.426a.1.1,0,0,1,.1.1v.327a.1.1,0,0,1-.1.1H4.662v.426a.1.1,0,0,1-.1.1H4.236a.1.1,0,0,1-.1-.1V1.833H3.712a.1.1,0,0,1-.1-.1ZM2.829,3.143H5.971v.629a1.571,1.571,0,1,1-3.143,0ZM6.274,6.286,4.4,8.159,2.526,6.286A2.634,2.634,0,0,0,0,8.914a1.143,1.143,0,0,0,1.143,1.143H7.657A1.143,1.143,0,0,0,8.8,8.914,2.634,2.634,0,0,0,6.274,6.286Z" transform="translate(-265.215 2679.794)" fill="#00aa7b" />
        <path id="Icon_awesome-user-graduate" data-name="Icon awesome-user-graduate" d="M5.876,5.9,4.121,7.652,2.366,5.9A2.467,2.467,0,0,0,0,8.359v.177a.883.883,0,0,0,.883.883H7.359a.883.883,0,0,0,.883-.883V8.359A2.467,2.467,0,0,0,5.876,5.9ZM.25,1.467l.118.028V2.569A.425.425,0,0,0,.351,3.3L.064,4.451c-.031.127.039.258.14.258H.973c.1,0,.171-.131.14-.258L.826,3.3A.425.425,0,0,0,.81,2.569V1.6l1.214.293A2.351,2.351,0,1,0,6.476,2.942a2.313,2.313,0,0,0-.258-1.049L7.99,1.467a.293.293,0,0,0,0-.58L4.487.041a1.58,1.58,0,0,0-.73,0L.25.885a.294.294,0,0,0,0,.581Z" transform="translate(-264.936 2693.112)" fill="#00aa7b" />
        <path id="Icon_awesome-user-md" data-name="Icon awesome-user-md" d="M4.016,4.59A2.295,2.295,0,1,0,1.721,2.295,2.295,2.295,0,0,0,4.016,4.59ZM1.865,7.6a.43.43,0,1,0,.43-.43A.429.429,0,0,0,1.865,7.6ZM5.737,5.174v.879A1.436,1.436,0,0,1,6.885,7.458v.748a.288.288,0,0,1-.231.281L6.076,8.6a.143.143,0,0,1-.169-.113l-.056-.281a.142.142,0,0,1,.113-.169l.346-.07V7.458a.861.861,0,1,0-1.721.034v.479l.346.07a.145.145,0,0,1,.113.169l-.056.281a.145.145,0,0,1-.169.113l-.559-.075a.286.286,0,0,1-.247-.285V7.458A1.438,1.438,0,0,1,5.165,6.053v-.81c-.039.013-.079.02-.118.034a3.1,3.1,0,0,1-2.058,0,1.982,1.982,0,0,0-.405-.093V6.646a1,1,0,1,1-.574,0V5.2A2.4,2.4,0,0,0,0,7.573v.8a.8.8,0,0,0,.8.8H7.229a.8.8,0,0,0,.8-.8v-.8A2.406,2.406,0,0,0,5.737,5.174Z" transform="translate(-265.215 2708.047)" fill="#00aa7b" />
    </g>
</svg>