<svg xmlns="http://www.w3.org/2000/svg" width="36" height="35.882" viewBox="0 0 36 35.882">
    <path id="prototype"
          d="M18,.06a2.615,2.615,0,0,0-.806,5.1L16.248,9.03H3.684A3.684,3.684,0,0,0,0,12.714V32.257a3.684,3.684,0,0,0,3.684,3.684H32.316A3.685,3.685,0,0,0,36,32.257V12.714A3.685,3.685,0,0,0,32.316,9.03h-12.6l-.924-3.863A2.615,2.615,0,0,0,18,.06ZM5.9,11.821H30.1a2.991,2.991,0,0,1,2.991,2.991V29.988A2.991,2.991,0,0,1,30.1,32.979H5.9a2.991,2.991,0,0,1-2.991-2.991V14.813A2.991,2.991,0,0,1,5.9,11.821Zm4.881,3.468a6.863,6.863,0,1,0,6.863,6.862,6.862,6.862,0,0,0-6.863-6.862Zm14.615,0a6.863,6.863,0,1,0,6.862,6.862A6.862,6.862,0,0,0,25.4,15.289Zm-14.615,1.6a5.259,5.259,0,1,1-5.259,5.259,5.258,5.258,0,0,1,5.259-5.259Zm14.615,0a5.259,5.259,0,1,1-5.259,5.259A5.258,5.258,0,0,1,25.4,16.894ZM10.781,19.389a2.764,2.764,0,1,0,2.764,2.764A2.764,2.764,0,0,0,10.781,19.389Zm14.615,0a2.764,2.764,0,1,0,2.765,2.764A2.764,2.764,0,0,0,25.4,19.389ZM15,29.139v3.239h1.059V29.139H15Zm1.616,0v3.239h1.058V29.139Zm1.614,0v3.239h1.059V29.139Zm1.615,0v3.239h1.059V29.139Zm1.615.045v3.15a1.62,1.62,0,0,0,1.243-1.573h0a1.62,1.62,0,0,0-1.243-1.575Zm-7.017.042a1.62,1.62,0,0,0-1.1,1.531v0a1.619,1.619,0,0,0,1.1,1.531V29.226Z"
          transform="translate(0 -0.06)" fill="#00aa7b"/>
</svg>
