<svg xmlns="http://www.w3.org/2000/svg" width="22.46" height="34.228" viewBox="0 0 22.46 34.228">
    <g id="singleton" transform="translate(-351.538 -175)">
        <text id="_1" data-name="1" transform="translate(360.216 185)" fill="#00aa7b" font-size="13" font-family="Helvetica"><tspan x="0" y="0">1</tspan></text>
        <path id="Icon_metro-trophy" data-name="Icon metro-trophy" d="M20.819,6.664V3.856H6.782V6.664H2.571V9.471a4.214,4.214,0,0,0,5.475,4.018,7.022,7.022,0,0,0,4.351,2.86V20.7h-1.4a2.807,2.807,0,0,0-2.807,2.807h11.23A2.807,2.807,0,0,0,16.608,20.7H15.2V16.349a7.022,7.022,0,0,0,4.351-2.86A4.214,4.214,0,0,0,25.03,9.471V6.664ZM6.782,12.015A2.547,2.547,0,0,1,4.238,9.471v-1.4H6.782v1.4a7,7,0,0,0,.46,2.5A2.548,2.548,0,0,1,6.782,12.015ZM23.364,9.471a2.542,2.542,0,0,1-3,2.5,7,7,0,0,0,.46-2.5v-1.4h2.544v1.4Z" transform="translate(348.967 185.719)" fill="#00aa7b" />
    </g>
</svg>
