<svg xmlns="http://www.w3.org/2000/svg" width="94.82" height="36" viewBox="0 0 94.82 36">
    <g id="Group_11" data-name="Group 11" transform="translate(-163.038 -273)">
        <path id="Icon_simple-tencentqq" data-name="Icon simple-tencentqq" d="M32.092,22.552q-.551-1.716-1.2-3.4l-1.618-4.043c0-.048.021-.843.021-1.254C29.289,6.948,26.027,0,18,0S6.711,6.948,6.711,13.861c0,.411.019,1.206.021,1.254l-1.62,4.042q-.654,1.679-1.2,3.4c-1.532,4.925-1.035,6.965-.657,7.01.81.1,3.155-3.708,3.155-3.708A9.833,9.833,0,0,0,10,33.012,9.978,9.978,0,0,0,7.23,34.264c-.651.48-.569.969-.451,1.167.515.867,8.825.554,11.223.284,2.4.27,10.71.583,11.224-.284.117-.2.2-.687-.451-1.167a10.078,10.078,0,0,0-2.769-1.254,9.836,9.836,0,0,0,3.59-7.156s2.344,3.806,3.154,3.708c.376-.045.871-2.085-.657-7.01ZM18.993,7.269c.059-1.578.989-2.817,2.077-2.769s1.921,1.368,1.863,2.946-.989,2.817-2.077,2.769S18.933,8.847,18.993,7.269ZM14.931,4.5c1.087-.049,2.017,1.191,2.076,2.769s-.775,2.9-1.863,2.944-2.019-1.191-2.078-2.767S13.842,4.549,14.931,4.5Zm-3.8,7.941c.291-.645,3.22-1.362,6.849-1.362h.039c3.627,0,6.558.719,6.849,1.362a.21.21,0,0,1,.021.092.223.223,0,0,1-.039.125,12.64,12.64,0,0,1-6.83,2.124h-.039a12.635,12.635,0,0,1-6.83-2.124.2.2,0,0,1-.021-.216ZM26.764,25.374c-.33,5.514-3.6,8.98-8.661,9.032H17.9c-5.055-.049-8.331-3.517-8.66-9.031a23.974,23.974,0,0,1,.22-5.145c.477.094.957.183,1.437.264v5.259a16.9,16.9,0,0,0,4.977.154V21.069c.732.041,1.44.06,2.109.051h.038a43.152,43.152,0,0,0,8.524-.891,24.071,24.071,0,0,1,.221,5.145ZM15.72,8.706a1.084,1.084,0,0,0,.762-1.238c-.049-.622-.471-1.08-.943-1.018a1.084,1.084,0,0,0-.762,1.236C14.828,8.312,15.249,8.766,15.72,8.706Zm6-.972a.306.306,0,0,0,.434-.219.337.337,0,0,0-.014-.321,1.068,1.068,0,0,0-.556-.264,1.853,1.853,0,0,0-2.108.748.28.28,0,0,0,.084.34.2.2,0,0,0,.268-.009A1.441,1.441,0,0,1,21.719,7.734Z" transform="translate(160.175 273)" fill="#00aa7b" />
        <path id="Icon_awesome-qq" data-name="Icon awesome-qq" d="M30.5,29.563c-.81.1-3.154-3.708-3.154-3.708a9.839,9.839,0,0,1-3.59,7.157c1.184.365,3.856,1.348,3.221,2.42-.514.868-8.825.554-11.224.284-2.4.27-10.71.584-11.224-.284-.636-1.072,2.033-2.054,3.219-2.42a9.839,9.839,0,0,1-3.59-7.157S1.812,29.66,1,29.563c-.378-.046-.874-2.084.657-7.01C2.38,20.23,3.205,18.3,4.482,15.115,4.267,6.9,7.663,0,15.75,0c8,0,11.472,6.759,11.269,15.115,1.274,3.18,2.1,5.122,2.823,7.438C31.372,27.478,30.876,29.517,30.5,29.563Z" transform="translate(226.972 273)" fill="#00aa7b" />
        <path id="Icon_simple-tencentqq-2" data-name="Icon simple-tencentqq" d="M32.092,22.552q-.551-1.716-1.2-3.4l-1.618-4.043c0-.048.021-.843.021-1.254C29.289,6.948,26.027,0,18,0S6.711,6.948,6.711,13.861c0,.411.019,1.206.021,1.254l-1.62,4.042q-.654,1.679-1.2,3.4c-1.532,4.925-1.035,6.965-.657,7.01.81.1,3.155-3.708,3.155-3.708A9.833,9.833,0,0,0,10,33.012,9.978,9.978,0,0,0,7.23,34.264c-.651.48-.569.969-.451,1.167.515.867,8.825.554,11.223.284,2.4.27,10.71.583,11.224-.284.117-.2.2-.687-.451-1.167a10.078,10.078,0,0,0-2.769-1.254,9.836,9.836,0,0,0,3.59-7.156s2.344,3.806,3.154,3.708c.376-.045.871-2.085-.657-7.01ZM18.993,7.269c.059-1.578.989-2.817,2.077-2.769s1.921,1.368,1.863,2.946-.989,2.817-2.077,2.769S18.933,8.847,18.993,7.269ZM14.931,4.5c1.087-.049,2.017,1.191,2.076,2.769s-.775,2.9-1.863,2.944-2.019-1.191-2.078-2.767S13.842,4.549,14.931,4.5Zm-3.8,7.941c.291-.645,3.26-.348,6.888-.348,3.666,0,6.558-.3,6.849.348a.21.21,0,0,1,.021.092.223.223,0,0,1-.039.125c-.244.357-6.831.34-6.831.34s-6.623.017-6.867-.34a.2.2,0,0,1-.021-.216ZM26.764,25.374c-.33,5.514-3.6,8.98-8.661,9.032H17.9c-5.055-.049-8.331-3.517-8.66-9.031a23.974,23.974,0,0,1,.22-5.145c.477.094.957.183,1.437.264v5.259a16.9,16.9,0,0,0,4.977.154V21.069c.732.041,1.44.06,2.109.051h.038a43.152,43.152,0,0,0,8.524-.891,24.071,24.071,0,0,1,.221,5.145ZM15.72,8.706a1.084,1.084,0,0,0,.762-1.238c-.049-.622-.471-1.08-.943-1.018a1.084,1.084,0,0,0-.762,1.236C14.828,8.312,15.249,8.766,15.72,8.706Zm5.136.216c.648-.126.964-.5.964-.984s-.316-1.2-.964-1.078a1.123,1.123,0,0,0-.911,1.16C19.945,8.507,20.208,9.048,20.856,8.922Z" transform="translate(192.448 273)" fill="#00aa7b" />
    </g>
</svg>
