<svg xmlns="http://www.w3.org/2000/svg" width="30.18" height="26.407" viewBox="0 0 30.18 26.407">
    <path id="Icon_awesome-toolbox" data-name="Icon awesome-toolbox"
          d="M29.628,13.015,26.96,10.348A1.886,1.886,0,0,0,25.626,9.8H22.635V5.079A2.829,2.829,0,0,0,19.806,2.25H10.374A2.829,2.829,0,0,0,7.545,5.079V9.795H4.554a1.887,1.887,0,0,0-1.334.552L.552,13.015A1.886,1.886,0,0,0,0,14.349v4.877H7.545v-.943a.943.943,0,0,1,.943-.943h1.886a.943.943,0,0,1,.943.943v.943h7.545v-.943a.943.943,0,0,1,.943-.943h1.886a.943.943,0,0,1,.943.943v.943H30.18V14.348A1.886,1.886,0,0,0,29.628,13.015ZM18.862,9.795H11.317V6.022h7.545Zm3.772,12.261a.943.943,0,0,1-.943.943H19.806a.943.943,0,0,1-.943-.943v-.943H11.317v.943a.943.943,0,0,1-.943.943H8.488a.943.943,0,0,1-.943-.943v-.943H0v5.659a1.886,1.886,0,0,0,1.886,1.886H28.294a1.886,1.886,0,0,0,1.886-1.886V21.112H22.635Z"
          transform="translate(0 -2.25)" fill="#00aa7b"/>
</svg>
