<svg xmlns="http://www.w3.org/2000/svg" width="26.43" height="26.435" viewBox="0 0 26.43 26.435">
    <path id="Icon_awesome-globe" data-name="Icon awesome-globe" d="M17.934,8.664c-.773-4.759-2.6-8.1-4.717-8.1S9.274,3.9,8.5,8.664ZM8.1,13.78a33.407,33.407,0,0,0,.176,3.411h9.876a33.406,33.406,0,0,0,.176-3.411,33.406,33.406,0,0,0-.176-3.411H8.277A33.406,33.406,0,0,0,8.1,13.78ZM25.407,8.664a13.246,13.246,0,0,0-8.421-7.547,17.988,17.988,0,0,1,2.665,7.547ZM9.444,1.117A13.237,13.237,0,0,0,1.029,8.664H6.785a17.915,17.915,0,0,1,2.66-7.547Zm16.533,9.252H19.864c.112,1.119.176,2.265.176,3.411s-.064,2.292-.176,3.411h6.108a13.1,13.1,0,0,0,.458-3.411A13.333,13.333,0,0,0,25.977,10.369ZM6.4,13.78c0-1.146.064-2.292.176-3.411H.458a12.921,12.921,0,0,0,0,6.822H6.566C6.46,16.072,6.4,14.926,6.4,13.78ZM8.5,18.9c.773,4.759,2.6,8.1,4.717,8.1s3.944-3.342,4.717-8.1Zm8.49,7.547A13.258,13.258,0,0,0,25.412,18.9H19.656a17.988,17.988,0,0,1-2.665,7.547ZM1.029,18.9A13.246,13.246,0,0,0,9.45,26.444,17.988,17.988,0,0,1,6.785,18.9H1.029Z" transform="translate(0 -0.563)" />
</svg>
