<svg xmlns="http://www.w3.org/2000/svg" width="293" height="293" viewBox="0 0 293 293">
    <g id="adaptive-icon" transform="translate(-2675.63 -2911.63)">
        <circle id="Ellipse_5" data-name="Ellipse 5" cx="143" cy="143" r="143" transform="translate(2679.63 2915.63)" fill="#00aa7b" />
        <g id="logo" transform="translate(2675.63 2911.63)">
            <path id="Exclusion_1" data-name="Exclusion 1" d="M146.5,293A146.539,146.539,0,0,1,89.476,11.513,146.538,146.538,0,0,1,203.524,281.487,145.58,145.58,0,0,1,146.5,293ZM78.2,172.114v25.614a8.548,8.548,0,0,0,8.538,8.538H206.266a8.548,8.548,0,0,0,8.538-8.538V172.114H180.652v4.269a4.274,4.274,0,0,1-4.269,4.269h-8.538a4.274,4.274,0,0,1-4.269-4.269v-4.269H129.424v4.269a4.274,4.274,0,0,1-4.269,4.269h-8.538a4.274,4.274,0,0,1-4.269-4.269v-4.269Zm89.649-17.076h8.538a4.274,4.274,0,0,1,4.269,4.269v4.269H214.8V141.5a8.586,8.586,0,0,0-2.5-6.036L200.23,123.388a8.493,8.493,0,0,0-6.039-2.5h-13.54V99.541a12.82,12.82,0,0,0-12.807-12.8h-42.69a12.82,12.82,0,0,0-12.807,12.8v21.345H98.808a8.485,8.485,0,0,0-6.039,2.5L80.7,135.463a8.59,8.59,0,0,0-2.5,6.039v22.075h34.152v-4.269a4.274,4.274,0,0,1,4.269-4.269h8.538a4.274,4.274,0,0,1,4.269,4.269v4.269h34.152v-4.269A4.274,4.274,0,0,1,167.845,155.038Zm-4.269-34.152H129.424V103.81h34.152v17.076Z" fill="#fff" />
        </g>
    </g>
</svg>
