<svg id="logo" xmlns="http://www.w3.org/2000/svg" width="56" height="56" viewBox="0 0 56 56">
    <path id="Exclusion_1" data-name="Exclusion 1"
          d="M28,56A28.007,28.007,0,0,1,17.1,2.2,28.007,28.007,0,0,1,38.9,53.8,27.824,27.824,0,0,1,28,56ZM14.945,32.9v4.9a1.634,1.634,0,0,0,1.632,1.632H39.423a1.634,1.634,0,0,0,1.632-1.632V32.9H34.527v.816a.817.817,0,0,1-.816.816H32.08a.817.817,0,0,1-.816-.816V32.9H24.736v.816a.817.817,0,0,1-.816.816H22.289a.817.817,0,0,1-.816-.816V32.9ZM32.08,29.632h1.632a.817.817,0,0,1,.816.816v.816h6.527v-4.22a1.641,1.641,0,0,0-.478-1.154l-2.307-2.308a1.623,1.623,0,0,0-1.154-.478H34.527v-4.08a2.45,2.45,0,0,0-2.448-2.447H23.92a2.45,2.45,0,0,0-2.448,2.447V23.1H18.885a1.622,1.622,0,0,0-1.154.478L15.424,25.89a1.642,1.642,0,0,0-.478,1.154v4.219h6.527v-.816a.817.817,0,0,1,.816-.816H23.92a.817.817,0,0,1,.816.816v.816h6.527v-.816A.817.817,0,0,1,32.08,29.632ZM31.264,23.1H24.736V19.841h6.527V23.1Z"
          transform="translate(0 0)" fill="#fff"/>
</svg>
